<svg xmlns="http://www.w3.org/2000/svg" width="1200" height="640" viewBox="0 0 1200 640" role="img"><title>武汉 / WUHAN原创示意插画</title><rect width="1200" height="640" fill="#efe8d8"/><circle cx="1050" cy="110" r="155" fill="#90b5ac" opacity=".5"/><path d="M80 230H1120" stroke="#344f4c" stroke-width="25"/><path d="M180 230v330m850-330v330" stroke="#758f86" stroke-width="20"/><path d="M380 240v60m300-60v60" stroke="#344f4c" stroke-width="20"/><rect x="285" y="293" width="510" height="175" rx="48" fill="#326f76"/><path d="M325 322h425v82H325z" fill="#d8e7dd"/><path d="M420 322v82m110-82v82m110-82v82" stroke="#326f76" stroke-width="10"/><rect x="450" y="447" width="180" height="13" rx="6" fill="#e9c574"/><path d="M20 555Q180 480 380 535T760 530T1200 540V640H0Z" fill="#c1ccaa"/><circle cx="890" cy="332" r="53" fill="#e3c078"/><rect x="45" y="32" width="280" height="37" rx="18" fill="#fff9ec"/><text x="65" y="58" font-family="sans-serif" font-size="22" fill="#334c45">武汉 / WUHAN</text><text x="58" y="132" font-family="sans-serif" font-size="42" font-weight="bold" fill="#283e37">轨在上，风景在脚下。</text><text x="920" y="613" font-family="sans-serif" font-size="17" fill="#344f47">街巷奇闻 · 示意插画</text></svg>